<mxfile host="65bd71144e">
    <diagram id="tR1AoCd9k7gNsroVEPG6" name="Page-1">
        <mxGraphModel dx="649" dy="602" grid="1" gridSize="10" guides="1" tooltips="1" connect="1" arrows="1" fold="1" page="1" pageScale="1" pageWidth="827" pageHeight="1169" math="0" shadow="0">
            <root>
                <mxCell id="0"/>
                <mxCell id="1" parent="0"/>
                <mxCell id="5" value="" style="edgeStyle=none;html=1;" edge="1" parent="1" source="2" target="4">
                    <mxGeometry relative="1" as="geometry"/>
                </mxCell>
                <mxCell id="2" value="start" style="ellipse;whiteSpace=wrap;html=1;" vertex="1" parent="1">
                    <mxGeometry x="230" y="60" width="120" height="30" as="geometry"/>
                </mxCell>
                <mxCell id="3" value="Блок-схема&amp;nbsp; на основе псевдокода: Нужно посчитать все максимальные одинаковые элементы" style="text;html=1;align=center;verticalAlign=middle;resizable=0;points=[];autosize=1;strokeColor=none;fillColor=none;" vertex="1" parent="1">
                    <mxGeometry x="135" y="10" width="550" height="20" as="geometry"/>
                </mxCell>
                <mxCell id="7" value="" style="edgeStyle=none;html=1;" edge="1" parent="1" source="4" target="6">
                    <mxGeometry relative="1" as="geometry"/>
                </mxCell>
                <mxCell id="4" value="numbers =[1,8,3,8,2,6,8,8]&lt;br&gt;size = 8" style="shape=parallelogram;perimeter=parallelogramPerimeter;whiteSpace=wrap;html=1;fixedSize=1;" vertex="1" parent="1">
                    <mxGeometry x="220" y="120" width="140" height="60" as="geometry"/>
                </mxCell>
                <mxCell id="9" value="" style="edgeStyle=none;html=1;" edge="1" parent="1" source="6" target="8">
                    <mxGeometry relative="1" as="geometry"/>
                </mxCell>
                <mxCell id="6" value="index =0&lt;br&gt;maximum = numbers[index&lt;br&gt;count_maximal = 0]" style="whiteSpace=wrap;html=1;" vertex="1" parent="1">
                    <mxGeometry x="205" y="220" width="170" height="60" as="geometry"/>
                </mxCell>
                <mxCell id="11" value="" style="edgeStyle=none;html=1;" edge="1" parent="1" source="8" target="10">
                    <mxGeometry relative="1" as="geometry"/>
                </mxCell>
                <mxCell id="20" value="" style="edgeStyle=none;html=1;" edge="1" parent="1" source="8" target="19">
                    <mxGeometry relative="1" as="geometry"/>
                </mxCell>
                <mxCell id="8" value="index &amp;lt; size?" style="rhombus;whiteSpace=wrap;html=1;" vertex="1" parent="1">
                    <mxGeometry x="250" y="320" width="80" height="80" as="geometry"/>
                </mxCell>
                <mxCell id="13" value="" style="edgeStyle=none;html=1;" edge="1" parent="1" source="10" target="12">
                    <mxGeometry relative="1" as="geometry"/>
                </mxCell>
                <mxCell id="17" value="" style="edgeStyle=none;html=1;" edge="1" parent="1" source="10" target="16">
                    <mxGeometry relative="1" as="geometry"/>
                </mxCell>
                <mxCell id="22" value="" style="edgeStyle=none;html=1;" edge="1" parent="1" source="10" target="16">
                    <mxGeometry relative="1" as="geometry"/>
                </mxCell>
                <mxCell id="10" value="numbers[index] &amp;gt; maximum?" style="rhombus;whiteSpace=wrap;html=1;" vertex="1" parent="1">
                    <mxGeometry x="205" y="450" width="170" height="100" as="geometry"/>
                </mxCell>
                <mxCell id="15" value="" style="edgeStyle=none;html=1;" edge="1" parent="1" source="12" target="14">
                    <mxGeometry relative="1" as="geometry"/>
                </mxCell>
                <mxCell id="12" value="maximu = numbers[index]" style="whiteSpace=wrap;html=1;" vertex="1" parent="1">
                    <mxGeometry x="215" y="580" width="150" height="30" as="geometry"/>
                </mxCell>
                <mxCell id="31" value="" style="edgeStyle=none;html=1;" edge="1" parent="1" source="14" target="26">
                    <mxGeometry relative="1" as="geometry"/>
                </mxCell>
                <mxCell id="14" value="count_maximal =1" style="whiteSpace=wrap;html=1;" vertex="1" parent="1">
                    <mxGeometry x="230" y="640" width="120" height="30" as="geometry"/>
                </mxCell>
                <mxCell id="25" value="" style="edgeStyle=none;html=1;" edge="1" parent="1" source="16" target="24">
                    <mxGeometry relative="1" as="geometry"/>
                </mxCell>
                <mxCell id="28" style="edgeStyle=none;html=1;exitX=1;exitY=0.5;exitDx=0;exitDy=0;entryX=1;entryY=0.5;entryDx=0;entryDy=0;" edge="1" parent="1" source="16" target="26">
                    <mxGeometry relative="1" as="geometry">
                        <mxPoint x="700" y="490" as="targetPoint"/>
                        <Array as="points">
                            <mxPoint x="700" y="500"/>
                            <mxPoint x="700" y="750"/>
                        </Array>
                    </mxGeometry>
                </mxCell>
                <mxCell id="16" value="number[index] == maximum&amp;nbsp;" style="rhombus;whiteSpace=wrap;html=1;" vertex="1" parent="1">
                    <mxGeometry x="430" y="460" width="190" height="80" as="geometry"/>
                </mxCell>
                <mxCell id="35" value="" style="edgeStyle=none;html=1;" edge="1" parent="1" source="19" target="34">
                    <mxGeometry relative="1" as="geometry"/>
                </mxCell>
                <mxCell id="19" value="print(count_maximal)" style="whiteSpace=wrap;html=1;" vertex="1" parent="1">
                    <mxGeometry x="390" y="330" width="150" height="60" as="geometry"/>
                </mxCell>
                <mxCell id="21" value="yes" style="text;html=1;align=center;verticalAlign=middle;resizable=0;points=[];autosize=1;strokeColor=none;fillColor=none;" vertex="1" parent="1">
                    <mxGeometry x="295" y="540" width="30" height="20" as="geometry"/>
                </mxCell>
                <mxCell id="23" value="no" style="text;html=1;align=center;verticalAlign=middle;resizable=0;points=[];autosize=1;strokeColor=none;fillColor=none;" vertex="1" parent="1">
                    <mxGeometry x="385" y="470" width="30" height="20" as="geometry"/>
                </mxCell>
                <mxCell id="33" style="edgeStyle=none;html=1;" edge="1" parent="1" source="24">
                    <mxGeometry relative="1" as="geometry">
                        <mxPoint x="525" y="750" as="targetPoint"/>
                    </mxGeometry>
                </mxCell>
                <mxCell id="24" value="count_maximal = count_maximal + 1" style="whiteSpace=wrap;html=1;" vertex="1" parent="1">
                    <mxGeometry x="465" y="580" width="120" height="40" as="geometry"/>
                </mxCell>
                <mxCell id="32" style="edgeStyle=none;html=1;exitX=0;exitY=0.5;exitDx=0;exitDy=0;entryX=0;entryY=0.5;entryDx=0;entryDy=0;" edge="1" parent="1" source="26" target="8">
                    <mxGeometry relative="1" as="geometry">
                        <mxPoint x="170" y="360" as="targetPoint"/>
                        <Array as="points">
                            <mxPoint x="170" y="750"/>
                            <mxPoint x="170" y="580"/>
                            <mxPoint x="170" y="360"/>
                        </Array>
                    </mxGeometry>
                </mxCell>
                <mxCell id="26" value="index = index +1" style="whiteSpace=wrap;html=1;" vertex="1" parent="1">
                    <mxGeometry x="230" y="730" width="120" height="40" as="geometry"/>
                </mxCell>
                <mxCell id="29" value="no" style="text;html=1;align=center;verticalAlign=middle;resizable=0;points=[];autosize=1;strokeColor=none;fillColor=none;" vertex="1" parent="1">
                    <mxGeometry x="635" y="470" width="30" height="20" as="geometry"/>
                </mxCell>
                <mxCell id="30" value="yes" style="text;html=1;align=center;verticalAlign=middle;resizable=0;points=[];autosize=1;strokeColor=none;fillColor=none;" vertex="1" parent="1">
                    <mxGeometry x="525" y="540" width="30" height="20" as="geometry"/>
                </mxCell>
                <mxCell id="34" value="finish" style="ellipse;whiteSpace=wrap;html=1;" vertex="1" parent="1">
                    <mxGeometry x="585" y="340" width="120" height="40" as="geometry"/>
                </mxCell>
            </root>
        </mxGraphModel>
    </diagram>
</mxfile>